<mxfile modified="2022-03-18T12:45:42.603Z" host="app.diagrams.net" agent="5.0 (X11)" etag="j1v_dyahYRobN4RSllBt" version="17.1.3" type="github">
  <diagram id="Ht1M8jgEwFfnCIfOTk4-" name="Page-1">
    <mxGraphModel dx="2182" dy="1538" grid="1" gridSize="10" guides="1" tooltips="1" connect="1" arrows="1" fold="1" page="1" pageScale="1" pageWidth="1169" pageHeight="827" math="0" shadow="0">
      <root>
        <mxCell id="0" />
        <mxCell id="1" parent="0" />
        <mxCell id="UEzPUAAOIrF-is8g5C7q-74" value="DAI" style="points=[[0,0],[0.25,0],[0.5,0],[0.75,0],[1,0],[1,0.25],[1,0.5],[1,0.75],[1,1],[0.75,1],[0.5,1],[0.25,1],[0,1],[0,0.75],[0,0.5],[0,0.25]];outlineConnect=0;gradientColor=none;html=1;whiteSpace=wrap;fontSize=12;fontStyle=0;shape=mxgraph.aws4.group;grIcon=mxgraph.aws4.group_aws_cloud_alt;strokeColor=#232F3E;fillColor=none;verticalAlign=top;align=left;spacingLeft=30;fontColor=#232F3E;dashed=0;labelBackgroundColor=#ffffff;container=1;pointerEvents=0;collapsible=0;recursiveResize=0;" parent="1" vertex="1">
          <mxGeometry x="40" y="80" width="220" height="650" as="geometry" />
        </mxCell>
        <mxCell id="RvYsPrgFDpj5hAQnLX-L-2" value="DOI S3" style="sketch=0;points=[[0,0,0],[0.25,0,0],[0.5,0,0],[0.75,0,0],[1,0,0],[0,1,0],[0.25,1,0],[0.5,1,0],[0.75,1,0],[1,1,0],[0,0.25,0],[0,0.5,0],[0,0.75,0],[1,0.25,0],[1,0.5,0],[1,0.75,0]];outlineConnect=0;fontColor=#232F3E;gradientColor=#60A337;gradientDirection=north;fillColor=#277116;strokeColor=#ffffff;dashed=0;verticalLabelPosition=bottom;verticalAlign=top;align=center;html=1;fontSize=12;fontStyle=0;aspect=fixed;shape=mxgraph.aws4.resourceIcon;resIcon=mxgraph.aws4.s3;" vertex="1" parent="UEzPUAAOIrF-is8g5C7q-74">
          <mxGeometry x="80" y="80" width="78" height="78" as="geometry" />
        </mxCell>
        <mxCell id="RvYsPrgFDpj5hAQnLX-L-47" value="ROI Stream" style="sketch=0;points=[[0,0,0],[0.25,0,0],[0.5,0,0],[0.75,0,0],[1,0,0],[0,1,0],[0.25,1,0],[0.5,1,0],[0.75,1,0],[1,1,0],[0,0.25,0],[0,0.5,0],[0,0.75,0],[1,0.25,0],[1,0.5,0],[1,0.75,0]];outlineConnect=0;fontColor=#232F3E;gradientColor=#945DF2;gradientDirection=north;fillColor=#5A30B5;strokeColor=#ffffff;dashed=0;verticalLabelPosition=bottom;verticalAlign=top;align=center;html=1;fontSize=12;fontStyle=0;aspect=fixed;shape=mxgraph.aws4.resourceIcon;resIcon=mxgraph.aws4.kinesis_data_streams;" vertex="1" parent="UEzPUAAOIrF-is8g5C7q-74">
          <mxGeometry x="80" y="320" width="78" height="78" as="geometry" />
        </mxCell>
        <mxCell id="UEzPUAAOIrF-is8g5C7q-75" value="KITT" style="points=[[0,0],[0.25,0],[0.5,0],[0.75,0],[1,0],[1,0.25],[1,0.5],[1,0.75],[1,1],[0.75,1],[0.5,1],[0.25,1],[0,1],[0,0.75],[0,0.5],[0,0.25]];outlineConnect=0;gradientColor=none;html=1;whiteSpace=wrap;fontSize=12;fontStyle=0;shape=mxgraph.aws4.group;grIcon=mxgraph.aws4.group_aws_cloud_alt;strokeColor=#232F3E;fillColor=none;verticalAlign=top;align=left;spacingLeft=30;fontColor=#232F3E;dashed=0;labelBackgroundColor=#ffffff;container=1;pointerEvents=0;collapsible=0;recursiveResize=0;" parent="1" vertex="1">
          <mxGeometry x="290" y="80" width="640" height="650" as="geometry" />
        </mxCell>
        <mxCell id="RvYsPrgFDpj5hAQnLX-L-11" style="edgeStyle=orthogonalEdgeStyle;rounded=0;orthogonalLoop=1;jettySize=auto;html=1;exitX=1;exitY=0.5;exitDx=0;exitDy=0;exitPerimeter=0;entryX=0;entryY=0.5;entryDx=0;entryDy=0;entryPerimeter=0;" edge="1" parent="UEzPUAAOIrF-is8g5C7q-75" source="RvYsPrgFDpj5hAQnLX-L-5" target="RvYsPrgFDpj5hAQnLX-L-10">
          <mxGeometry relative="1" as="geometry" />
        </mxCell>
        <mxCell id="RvYsPrgFDpj5hAQnLX-L-12" value="Store files" style="edgeLabel;html=1;align=center;verticalAlign=middle;resizable=0;points=[];" vertex="1" connectable="0" parent="RvYsPrgFDpj5hAQnLX-L-11">
          <mxGeometry x="0.2273" y="2" relative="1" as="geometry">
            <mxPoint as="offset" />
          </mxGeometry>
        </mxCell>
        <mxCell id="RvYsPrgFDpj5hAQnLX-L-5" value="DOI Copy Lambda" style="sketch=0;points=[[0,0,0],[0.25,0,0],[0.5,0,0],[0.75,0,0],[1,0,0],[0,1,0],[0.25,1,0],[0.5,1,0],[0.75,1,0],[1,1,0],[0,0.25,0],[0,0.5,0],[0,0.75,0],[1,0.25,0],[1,0.5,0],[1,0.75,0]];outlineConnect=0;fontColor=#232F3E;gradientColor=#F78E04;gradientDirection=north;fillColor=#D05C17;strokeColor=#ffffff;dashed=0;verticalLabelPosition=bottom;verticalAlign=top;align=center;html=1;fontSize=12;fontStyle=0;aspect=fixed;shape=mxgraph.aws4.resourceIcon;resIcon=mxgraph.aws4.lambda;" vertex="1" parent="UEzPUAAOIrF-is8g5C7q-75">
          <mxGeometry x="60" y="80" width="78" height="78" as="geometry" />
        </mxCell>
        <mxCell id="RvYsPrgFDpj5hAQnLX-L-10" value="" style="sketch=0;points=[[0,0,0],[0.25,0,0],[0.5,0,0],[0.75,0,0],[1,0,0],[0,1,0],[0.25,1,0],[0.5,1,0],[0.75,1,0],[1,1,0],[0,0.25,0],[0,0.5,0],[0,0.75,0],[1,0.25,0],[1,0.5,0],[1,0.75,0]];outlineConnect=0;fontColor=#232F3E;gradientColor=#60A337;gradientDirection=north;fillColor=#277116;strokeColor=#ffffff;dashed=0;verticalLabelPosition=bottom;verticalAlign=top;align=center;html=1;fontSize=12;fontStyle=0;aspect=fixed;shape=mxgraph.aws4.resourceIcon;resIcon=mxgraph.aws4.s3;" vertex="1" parent="UEzPUAAOIrF-is8g5C7q-75">
          <mxGeometry x="270" y="80" width="78" height="78" as="geometry" />
        </mxCell>
        <mxCell id="RvYsPrgFDpj5hAQnLX-L-13" value="ECS Cluster" style="sketch=0;points=[[0,0,0],[0.25,0,0],[0.5,0,0],[0.75,0,0],[1,0,0],[0,1,0],[0.25,1,0],[0.5,1,0],[0.75,1,0],[1,1,0],[0,0.25,0],[0,0.5,0],[0,0.75,0],[1,0.25,0],[1,0.5,0],[1,0.75,0]];outlineConnect=0;fontColor=#232F3E;gradientColor=#F78E04;gradientDirection=north;fillColor=#D05C17;strokeColor=#ffffff;dashed=0;verticalLabelPosition=bottom;verticalAlign=top;align=center;html=1;fontSize=12;fontStyle=0;aspect=fixed;shape=mxgraph.aws4.resourceIcon;resIcon=mxgraph.aws4.fargate;" vertex="1" parent="UEzPUAAOIrF-is8g5C7q-75">
          <mxGeometry x="60" y="240" width="78" height="78" as="geometry" />
        </mxCell>
        <mxCell id="RvYsPrgFDpj5hAQnLX-L-17" value="DOI Service" style="sketch=0;outlineConnect=0;fontColor=#232F3E;gradientColor=none;fillColor=#D45B07;strokeColor=none;dashed=0;verticalLabelPosition=bottom;verticalAlign=top;align=center;html=1;fontSize=12;fontStyle=0;aspect=fixed;pointerEvents=1;shape=mxgraph.aws4.ecs_service;" vertex="1" parent="UEzPUAAOIrF-is8g5C7q-75">
          <mxGeometry x="190" y="240" width="39" height="48" as="geometry" />
        </mxCell>
        <mxCell id="RvYsPrgFDpj5hAQnLX-L-18" value="&lt;div&gt;DOI Task&lt;/div&gt;" style="sketch=0;outlineConnect=0;fontColor=#232F3E;gradientColor=none;fillColor=#D45B07;strokeColor=none;dashed=0;verticalLabelPosition=bottom;verticalAlign=top;align=center;html=1;fontSize=12;fontStyle=0;aspect=fixed;pointerEvents=1;shape=mxgraph.aws4.ecs_task;" vertex="1" parent="UEzPUAAOIrF-is8g5C7q-75">
          <mxGeometry x="290.5" y="240" width="37" height="48" as="geometry" />
        </mxCell>
        <mxCell id="RvYsPrgFDpj5hAQnLX-L-27" value="&lt;div&gt;ROI Service&lt;/div&gt;&lt;div&gt;&lt;br&gt;&lt;/div&gt;" style="sketch=0;outlineConnect=0;fontColor=#232F3E;gradientColor=none;fillColor=#D45B07;strokeColor=none;dashed=0;verticalLabelPosition=bottom;verticalAlign=top;align=center;html=1;fontSize=12;fontStyle=0;aspect=fixed;pointerEvents=1;shape=mxgraph.aws4.ecs_service;" vertex="1" parent="UEzPUAAOIrF-is8g5C7q-75">
          <mxGeometry x="190" y="360" width="39" height="48" as="geometry" />
        </mxCell>
        <mxCell id="RvYsPrgFDpj5hAQnLX-L-28" value="ROI Task" style="sketch=0;outlineConnect=0;fontColor=#232F3E;gradientColor=none;fillColor=#D45B07;strokeColor=none;dashed=0;verticalLabelPosition=bottom;verticalAlign=top;align=center;html=1;fontSize=12;fontStyle=0;aspect=fixed;pointerEvents=1;shape=mxgraph.aws4.ecs_task;" vertex="1" parent="UEzPUAAOIrF-is8g5C7q-75">
          <mxGeometry x="291" y="360" width="37" height="48" as="geometry" />
        </mxCell>
        <mxCell id="RvYsPrgFDpj5hAQnLX-L-29" value="!-5 tasks" style="points=[[0,0],[0.25,0],[0.5,0],[0.75,0],[1,0],[1,0.25],[1,0.5],[1,0.75],[1,1],[0.75,1],[0.5,1],[0.25,1],[0,1],[0,0.75],[0,0.5],[0,0.25]];outlineConnect=0;gradientColor=none;html=1;whiteSpace=wrap;fontSize=12;fontStyle=0;container=1;pointerEvents=0;collapsible=0;recursiveResize=0;shape=mxgraph.aws4.groupCenter;grIcon=mxgraph.aws4.group_auto_scaling_group;grStroke=1;strokeColor=#D86613;fillColor=none;verticalAlign=top;align=center;fontColor=#D86613;dashed=1;spacingTop=25;" vertex="1" parent="UEzPUAAOIrF-is8g5C7q-75">
          <mxGeometry x="250" y="450" width="140" height="150" as="geometry" />
        </mxCell>
        <mxCell id="RvYsPrgFDpj5hAQnLX-L-31" value="REST Task" style="sketch=0;outlineConnect=0;fontColor=#232F3E;gradientColor=none;fillColor=#D45B07;strokeColor=none;dashed=0;verticalLabelPosition=bottom;verticalAlign=top;align=center;html=1;fontSize=12;fontStyle=0;aspect=fixed;pointerEvents=1;shape=mxgraph.aws4.ecs_task;" vertex="1" parent="RvYsPrgFDpj5hAQnLX-L-29">
          <mxGeometry x="46.5" y="50" width="37" height="48" as="geometry" />
        </mxCell>
        <mxCell id="RvYsPrgFDpj5hAQnLX-L-35" value="" style="fillColor=none;strokeColor=#5A6C86;dashed=1;verticalAlign=top;fontStyle=0;fontColor=#5A6C86;" vertex="1" parent="RvYsPrgFDpj5hAQnLX-L-29">
          <mxGeometry x="-80" y="-10" width="220" height="160" as="geometry" />
        </mxCell>
        <mxCell id="RvYsPrgFDpj5hAQnLX-L-30" value="REST Service" style="sketch=0;outlineConnect=0;fontColor=#232F3E;gradientColor=none;fillColor=#D45B07;strokeColor=none;dashed=0;verticalLabelPosition=bottom;verticalAlign=top;align=center;html=1;fontSize=12;fontStyle=0;aspect=fixed;pointerEvents=1;shape=mxgraph.aws4.ecs_service;" vertex="1" parent="RvYsPrgFDpj5hAQnLX-L-29">
          <mxGeometry x="-60" y="50" width="39" height="48" as="geometry" />
        </mxCell>
        <mxCell id="RvYsPrgFDpj5hAQnLX-L-25" value="" style="rounded=0;orthogonalLoop=1;jettySize=auto;html=1;exitX=0.5;exitY=1;exitDx=0;exitDy=0;exitPerimeter=0;" edge="1" parent="UEzPUAAOIrF-is8g5C7q-75" source="RvYsPrgFDpj5hAQnLX-L-10" target="RvYsPrgFDpj5hAQnLX-L-18">
          <mxGeometry relative="1" as="geometry">
            <mxPoint x="309" y="242" as="sourcePoint" />
            <mxPoint x="309" y="160" as="targetPoint" />
          </mxGeometry>
        </mxCell>
        <mxCell id="RvYsPrgFDpj5hAQnLX-L-26" value="Read JSON files" style="edgeLabel;html=1;align=center;verticalAlign=middle;resizable=0;points=[];" vertex="1" connectable="0" parent="RvYsPrgFDpj5hAQnLX-L-25">
          <mxGeometry x="-0.2439" y="-1" relative="1" as="geometry">
            <mxPoint as="offset" />
          </mxGeometry>
        </mxCell>
        <mxCell id="RvYsPrgFDpj5hAQnLX-L-33" value="" style="fillColor=none;strokeColor=#5A6C86;dashed=1;verticalAlign=top;fontStyle=0;fontColor=#5A6C86;" vertex="1" parent="UEzPUAAOIrF-is8g5C7q-75">
          <mxGeometry x="170" y="229" width="220" height="100" as="geometry" />
        </mxCell>
        <mxCell id="RvYsPrgFDpj5hAQnLX-L-50" value="" style="edgeStyle=orthogonalEdgeStyle;rounded=0;jumpStyle=none;orthogonalLoop=1;jettySize=auto;html=1;strokeColor=default;entryX=1;entryY=0.5;entryDx=0;entryDy=0;entryPerimeter=0;" edge="1" parent="UEzPUAAOIrF-is8g5C7q-75" source="RvYsPrgFDpj5hAQnLX-L-49" target="RvYsPrgFDpj5hAQnLX-L-10">
          <mxGeometry relative="1" as="geometry">
            <mxPoint x="469" y="265" as="targetPoint" />
            <Array as="points">
              <mxPoint x="550" y="119" />
            </Array>
          </mxGeometry>
        </mxCell>
        <mxCell id="RvYsPrgFDpj5hAQnLX-L-51" value="Store Messages" style="edgeLabel;html=1;align=center;verticalAlign=middle;resizable=0;points=[];" vertex="1" connectable="0" parent="RvYsPrgFDpj5hAQnLX-L-50">
          <mxGeometry x="-0.5345" y="1" relative="1" as="geometry">
            <mxPoint as="offset" />
          </mxGeometry>
        </mxCell>
        <mxCell id="RvYsPrgFDpj5hAQnLX-L-49" value="Kinesis" style="sketch=0;points=[[0,0,0],[0.25,0,0],[0.5,0,0],[0.75,0,0],[1,0,0],[0,1,0],[0.25,1,0],[0.5,1,0],[0.75,1,0],[1,1,0],[0,0.25,0],[0,0.5,0],[0,0.75,0],[1,0.25,0],[1,0.5,0],[1,0.75,0]];outlineConnect=0;fontColor=#232F3E;gradientColor=#945DF2;gradientDirection=north;fillColor=#5A30B5;strokeColor=#ffffff;dashed=0;verticalLabelPosition=bottom;verticalAlign=top;align=center;html=1;fontSize=12;fontStyle=0;aspect=fixed;shape=mxgraph.aws4.resourceIcon;resIcon=mxgraph.aws4.kinesis_data_streams;" vertex="1" parent="UEzPUAAOIrF-is8g5C7q-75">
          <mxGeometry x="510" y="345" width="78" height="78" as="geometry" />
        </mxCell>
        <mxCell id="RvYsPrgFDpj5hAQnLX-L-48" value="" style="edgeStyle=orthogonalEdgeStyle;rounded=0;jumpStyle=none;orthogonalLoop=1;jettySize=auto;html=1;strokeColor=default;" edge="1" parent="UEzPUAAOIrF-is8g5C7q-75" source="RvYsPrgFDpj5hAQnLX-L-28" target="RvYsPrgFDpj5hAQnLX-L-49">
          <mxGeometry relative="1" as="geometry">
            <mxPoint x="408" y="384" as="targetPoint" />
          </mxGeometry>
        </mxCell>
        <mxCell id="RvYsPrgFDpj5hAQnLX-L-52" value="Send JSON" style="edgeLabel;html=1;align=center;verticalAlign=middle;resizable=0;points=[];" vertex="1" connectable="0" parent="RvYsPrgFDpj5hAQnLX-L-48">
          <mxGeometry x="-0.2402" y="-1" relative="1" as="geometry">
            <mxPoint x="63" y="-1" as="offset" />
          </mxGeometry>
        </mxCell>
        <mxCell id="RvYsPrgFDpj5hAQnLX-L-34" value="" style="fillColor=none;strokeColor=#5A6C86;dashed=1;verticalAlign=top;fontStyle=0;fontColor=#5A6C86;" vertex="1" parent="UEzPUAAOIrF-is8g5C7q-75">
          <mxGeometry x="170" y="334" width="220" height="100" as="geometry" />
        </mxCell>
        <mxCell id="RvYsPrgFDpj5hAQnLX-L-54" value="" style="edgeStyle=orthogonalEdgeStyle;rounded=0;jumpStyle=none;orthogonalLoop=1;jettySize=auto;html=1;strokeColor=default;" edge="1" parent="UEzPUAAOIrF-is8g5C7q-75" source="RvYsPrgFDpj5hAQnLX-L-53" target="RvYsPrgFDpj5hAQnLX-L-29">
          <mxGeometry relative="1" as="geometry">
            <mxPoint x="550" y="525" as="targetPoint" />
          </mxGeometry>
        </mxCell>
        <mxCell id="RvYsPrgFDpj5hAQnLX-L-53" value="ALB" style="sketch=0;points=[[0,0,0],[0.25,0,0],[0.5,0,0],[0.75,0,0],[1,0,0],[0,1,0],[0.25,1,0],[0.5,1,0],[0.75,1,0],[1,1,0],[0,0.25,0],[0,0.5,0],[0,0.75,0],[1,0.25,0],[1,0.5,0],[1,0.75,0]];outlineConnect=0;fontColor=#232F3E;gradientColor=#945DF2;gradientDirection=north;fillColor=#5A30B5;strokeColor=#ffffff;dashed=0;verticalLabelPosition=bottom;verticalAlign=top;align=center;html=1;fontSize=12;fontStyle=0;aspect=fixed;shape=mxgraph.aws4.resourceIcon;resIcon=mxgraph.aws4.elastic_load_balancing;" vertex="1" parent="UEzPUAAOIrF-is8g5C7q-75">
          <mxGeometry x="510" y="486" width="78" height="78" as="geometry" />
        </mxCell>
        <mxCell id="RvYsPrgFDpj5hAQnLX-L-36" value="" style="fillColor=none;strokeColor=#5A6C86;dashed=1;verticalAlign=top;fontStyle=0;fontColor=#5A6C86;" vertex="1" parent="1">
          <mxGeometry x="1050" y="950" width="396" height="421" as="geometry" />
        </mxCell>
        <mxCell id="RvYsPrgFDpj5hAQnLX-L-39" value="" style="rounded=0;orthogonalLoop=1;jettySize=auto;html=1;orthogonal=0;bendable=1;edgeStyle=orthogonalEdgeStyle;" edge="1" parent="1" source="RvYsPrgFDpj5hAQnLX-L-47" target="RvYsPrgFDpj5hAQnLX-L-28">
          <mxGeometry relative="1" as="geometry">
            <Array as="points">
              <mxPoint x="600" y="439" />
            </Array>
          </mxGeometry>
        </mxCell>
        <mxCell id="RvYsPrgFDpj5hAQnLX-L-40" value="Consuming Messages" style="edgeLabel;html=1;align=center;verticalAlign=middle;resizable=0;points=[];" vertex="1" connectable="0" parent="RvYsPrgFDpj5hAQnLX-L-39">
          <mxGeometry x="0.1985" y="-2" relative="1" as="geometry">
            <mxPoint x="-75" y="-1" as="offset" />
          </mxGeometry>
        </mxCell>
        <mxCell id="RvYsPrgFDpj5hAQnLX-L-7" style="rounded=0;orthogonalLoop=1;jettySize=auto;html=1;exitX=1;exitY=0.5;exitDx=0;exitDy=0;exitPerimeter=0;strokeColor=default;jumpStyle=none;entryX=0;entryY=0.5;entryDx=0;entryDy=0;entryPerimeter=0;" edge="1" parent="1" source="RvYsPrgFDpj5hAQnLX-L-2" target="RvYsPrgFDpj5hAQnLX-L-5">
          <mxGeometry relative="1" as="geometry" />
        </mxCell>
        <mxCell id="RvYsPrgFDpj5hAQnLX-L-8" value="&lt;div&gt;Copy and Extract&lt;/div&gt;" style="edgeLabel;html=1;align=center;verticalAlign=middle;resizable=0;points=[];" vertex="1" connectable="0" parent="RvYsPrgFDpj5hAQnLX-L-7">
          <mxGeometry x="-0.1163" y="-2" relative="1" as="geometry">
            <mxPoint x="6" y="-11" as="offset" />
          </mxGeometry>
        </mxCell>
      </root>
    </mxGraphModel>
  </diagram>
</mxfile>
